<svg width="12" height="24" viewBox="0 0 12 24" fill="none" xmlns="http://www.w3.org/2000/svg">
<path d="M11.5395 5.17434L6.66446 0.275717C6.66418 0.275436 6.66385 0.275202 6.66357 0.274874C6.2971 -0.0922513 5.7016 -0.0910794 5.33635 0.274967C5.33607 0.275249 5.33574 0.275483 5.33546 0.275811L0.460466 5.17444C0.0952634 5.54142 0.0966224 6.13504 0.463653 6.50029C0.830638 6.86554 1.42422 6.86414 1.78947 6.49715L5.06246 3.20822V23.0625C5.06246 23.5803 5.48218 24 5.99996 24C6.51774 24 6.93746 23.5803 6.93746 23.0625V3.20822L10.2105 6.49706C10.5757 6.86404 11.1693 6.86545 11.5363 6.5002C11.9033 6.1349 11.9046 5.54128 11.5395 5.17434Z" fill="white"/>
</svg>
